<?xml version="1.0" encoding="utf-8"?>
<!-- Generator: Adobe Illustrator 18.0.0, SVG Export Plug-In . SVG Version: 6.00 Build 0)  -->
<!DOCTYPE svg PUBLIC "-//W3C//DTD SVG 1.1//EN" "http://www.w3.org/Graphics/SVG/1.1/DTD/svg11.dtd">
<svg version="1.1" id="Layer_1" xmlns="http://www.w3.org/2000/svg" xmlns:xlink="http://www.w3.org/1999/xlink" x="0px" y="0px"
	 viewBox="0 0 100 75" enable-background="new 0 0 100 75" xml:space="preserve">
<g>
	<path d="M32.6,66.9L20.9,55.2c-1.1-1.1-1.1-3,0-4.1l11.7-11.7c1.1-1.1,3-1.1,4.1,0c1.1,1.1,1.1,3,0,4.1l-9.7,9.7l9.7,9.7
		c1.1,1.1,1.1,3,0,4.1c-0.6,0.6-1.3,0.9-2.1,0.9S33.2,67.5,32.6,66.9z"/>
	<path d="M20,53.1c0-1.6,1.3-2.9,2.9-2.9h26.4c8.1,0,14.7-6.6,14.7-14.7s-6.6-14.7-14.7-14.7h-5.9c-1.6,0-2.9-1.3-2.9-2.9
		s1.3-2.9,2.9-2.9h5.9c11.3,0,20.5,9.2,20.5,20.5c0,11.3-9.2,20.5-20.5,20.5H22.9C21.3,56,20,54.7,20,53.1z"/>
</g>
<text transform="matrix(1 0 0 1 20 88.1249)" enable-background="new    "><tspan x="0" y="0" font-family="'HelveticaNeue-Bold'" font-size="9.375">Created by </tspan><tspan x="51.6" y="0" font-family="'MyriadPro-Regular'" font-size="9.375">✦</tspan><tspan x="56.3" y="0" font-family="'HelveticaNeue-Bold'" font-size="9.375"> Shmidt Sergey </tspan><tspan x="126.7" y="0" font-family="'MyriadPro-Regular'" font-size="9.375">✦</tspan></text>
<text transform="matrix(1 0 0 1 20 97.4999)" font-family="'HelveticaNeue-Bold'" font-size="9.375">from the Noun Project</text>
</svg>
