<?xml version="1.0" encoding="utf-8"?>
<!-- Generator: Adobe Illustrator 18.0.0, SVG Export Plug-In . SVG Version: 6.00 Build 0)  -->
<!DOCTYPE svg PUBLIC "-//W3C//DTD SVG 1.1//EN" "http://www.w3.org/Graphics/SVG/1.1/DTD/svg11.dtd">
<svg version="1.1" id="Layer_1" xmlns="http://www.w3.org/2000/svg" xmlns:xlink="http://www.w3.org/1999/xlink" x="0px" y="0px"
	 viewBox="0 0 100 75" enable-background="new 0 0 100 75" xml:space="preserve">
<g>
	<path d="M50,0C33.4,0,20,13.4,20,30s13.4,30,30,30s30-13.4,30-30S66.6,0,50,0z M38,12c3.3,0,6,2.7,6,6c0,3.3-2.7,6-6,6
		c-3.3,0-6-2.7-6-6C32,14.7,34.7,12,38,12z M50,48c-7.8,0-14.5-5-17-12H67C64.5,43,57.8,48,50,48z M62,24c-3.3,0-6-2.7-6-6
		c0-3.3,2.7-6,6-6s6,2.7,6,6C68,21.3,65.3,24,62,24z"/>
</g>
<text transform="matrix(1 0 0 1 19.9997 141.9997)" font-family="'HelveticaNeue-Bold'" font-size="3">Created by Nadir Balcikli</text>
</svg>
